{"title":"The Net (1995) BRRIP XviD AC3-FWOLF","uid":9599444,"size":1874782369,"categoryP":"video","categoryS":"movies","magnet":"?xt=urn:btih:346447a91127862b1f5e1a799619c200c48e9cc9&amp;dn=The+Net+%281995%29+BRRIP+XviD+AC3-FWOLF&amp;tr=udp%3A%2F%2Ftracker.openbittorrent.com%3A80&amp;tr=udp%3A%2F%2Fopen.demonii.com%3A1337&amp;tr=udp%3A%2F%2Ftracker.coppersurfer.tk%3A6969&amp;tr=udp%3A%2F%2Fexodus.desync.com%3A6969","seeders":0,"leechers":0,"uploader":"sakhslitsa","files":9,"time":1392077308,"description":" &lt;a href=&quot;http://www.imdb.com/title/tt0113957/&quot; rel=&quot;nofollow&quot; target=&quot;_NEW&quot;&gt;http://www.imdb.com/title/tt0113957/&lt;/a&gt;\n\n\nFormat : AVI\nFormat/Info : Audio Video Interleave\nFile size : 1.72 GiB\nDuration : 1h 54mn\nOverall bit rate : 2 154 Kbps\n\nVideo\nID : 0\nFormat : MPEG-4 Visual\nFormat profile : Advanced Simple@L5\nFormat settings, BVOP : 2\nFormat settings, QPel : No\nFormat settings, GMC : No warppoints\nFormat settings, Matrix : Default (H.263)\nCodec ID : XVID\nCodec ID/Hint : XviD\nDuration : 1h 54mn\nBit rate : 1 699 Kbps\nWidth : 720 pixels\nHeight : 384 pixels\nDisplay aspect ratio : 1.85:1\nFrame rate : 23.976 fps\nColor space : YUV\nChroma subsampling : 4:2:0\nBit depth : 8 bits\nScan type : Progressive\nCompression mode : Lossy\nBits/(Pixel*Frame) : 0.256\nStream size : 1.36 GiB (79%)\nWriting library : XviD 1.2.1 (UTC 2008-12-04)\n\nAudio\nID : 1\nFormat : AC-3\nFormat/Info : Audio Coding 3\nMode extension : CM (complete main)\nFormat settings, Endianness : Big\nCodec ID : 2000\nDuration : 1h 54mn\nBit rate mode : Constant\nBit rate : 448 Kbps\nChannel(s) : 6 channels\nChannel positions : Front: L C R, Side: L R, LFE\nSampling rate : 48.0 KHz\nBit depth : 16 bits\nCompression mode : Lossy\nStream size : 366 MiB (21%)\nAlignment : Aligned on interleaves\nInterleave, duration : 64 ms (1.53 video frames)\nInterleave, preload duration : 192 ms\n\n\nEncoded....................FWOLF\n\nSource.....................720p.BluRay.x264-PSYCHD [PublicHD] (Thanks!)\n\nSample.....................Yes\n\nSubs (VobSub)..............English\n\nSubs.......................(idx)...\n\nSubs.......................(srt)...GREEK\n\n\n\nGreetz To: PsiX | Blacksheep | CFR | tomcat-12...\n.....and all P2P Encoders and Groups.....","torrent":{"xt":"urn:btih:346447a91127862b1f5e1a799619c200c48e9cc9","amp;dn":"The+Net+%281995%29+BRRIP+XviD+AC3-FWOLF","amp;tr":["udp%3A%2F%2Ftracker.openbittorrent.com%3A80","udp%3A%2F%2Fopen.demonii.com%3A1337","udp%3A%2F%2Ftracker.coppersurfer.tk%3A6969","udp%3A%2F%2Fexodus.desync.com%3A6969"],"infoHash":"346447a91127862b1f5e1a799619c200c48e9cc9","infoHashBuffer":{"type":"Buffer","data":[52,100,71,169,17,39,134,43,31,94,26,121,150,25,194,0,196,142,156,201]},"announce":[],"urlList":[]}}